<svg width="120" height="120" viewBox="0 0 120 120" fill="none" xmlns="http://www.w3.org/2000/svg">
<rect width="120" height="120" fill="#0B2641"/>
<path d="M50.1851 74.1069C47.567 74.1069 45.246 73.7178 43.2223 72.9394C41.2127 72.161 39.5144 71.0713 38.1275 69.6703C36.7548 68.2692 35.7075 66.6134 34.9858 64.7029C34.2782 62.7923 33.9244 60.7049 33.9244 58.4406C33.9244 55.3696 34.5541 52.6524 35.8137 50.289C37.0732 47.9256 38.8705 46.0787 41.2056 44.7484C43.5407 43.404 46.3287 42.7318 49.5695 42.7318C50.6309 42.7318 51.664 42.8025 52.6688 42.9441C53.6736 43.0714 54.6218 43.2554 55.5134 43.496C56.4191 43.7224 57.2541 43.9772 58.0183 44.2602C58.7967 44.5291 59.4689 44.8121 60.035 45.1093L59.5679 50.6499C58.3933 49.9847 57.247 49.4469 56.129 49.0365C55.0251 48.612 53.9566 48.3077 52.9235 48.1237C51.9046 47.9256 50.9352 47.8265 50.0153 47.8265C48.5859 47.8265 47.2627 48.06 46.0456 48.527C44.8427 48.9799 43.7884 49.6663 42.8826 50.5862C41.9911 51.4919 41.2976 52.6099 40.8023 53.9402C40.307 55.2564 40.0593 56.7636 40.0593 58.4618C40.0593 59.9619 40.2716 61.3701 40.6961 62.6862C41.1207 63.9882 41.7646 65.1345 42.6279 66.1252C43.4912 67.1158 44.595 67.8942 45.9395 68.4603C47.2839 69.0122 48.8619 69.2881 50.6734 69.2881C51.5225 69.2881 52.3433 69.2528 53.1358 69.182C53.9283 69.0971 54.6996 68.9627 55.4497 68.7787C56.1998 68.5947 56.9357 68.3683 57.6574 68.0994C58.3792 67.8163 59.1009 67.4767 59.8227 67.0804L60.5232 72.4299C60.042 72.6422 59.4264 72.8474 58.6764 73.0455C57.9405 73.2437 57.1126 73.4276 56.1927 73.5975C55.2728 73.7531 54.3034 73.8734 53.2844 73.9583C52.2655 74.0574 51.2324 74.1069 50.1851 74.1069ZM54.9402 72.5361C54.9402 70.9935 54.9402 69.642 54.9402 68.4815C54.9402 67.3069 54.9402 66.1322 54.9402 64.9576C54.9402 63.5849 54.9402 62.3749 54.9402 61.3276C54.9402 60.2662 54.9402 59.1906 54.9402 58.1009H60.5232C60.5232 59.1906 60.5232 60.2662 60.5232 61.3276C60.5232 62.3749 60.5232 63.5849 60.5232 64.9576C60.5232 66.1322 60.5232 67.2998 60.5232 68.4603C60.5232 69.6066 60.5232 70.9298 60.5232 72.4299L54.9402 72.5361Z" fill="#25FAF6"/>
<path d="M76.3581 74.1282C73.6975 74.1282 71.5181 73.647 69.8198 72.6846C68.1216 71.7223 66.8691 70.3991 66.0624 68.715C65.2558 67.0309 64.8524 65.1062 64.8524 62.9409C64.8524 60.7898 65.2345 58.8864 65.9987 57.2306C66.7771 55.5606 67.9163 54.2586 69.4165 53.3246C70.9166 52.3906 72.7564 51.9235 74.9358 51.9235C76.818 51.9235 78.4243 52.2703 79.7546 52.9637C81.099 53.643 82.1321 54.6691 82.8539 56.0418C83.5756 57.4004 83.9365 59.1128 83.9365 61.179C83.9365 61.7309 83.9223 62.2263 83.894 62.665C83.8799 63.1037 83.8374 63.5353 83.7667 63.9599L79.0753 62.0706C79.1036 61.8725 79.1248 61.6743 79.1389 61.4762C79.1531 61.2639 79.1602 61.0658 79.1602 60.8818C79.1602 59.3251 78.771 58.108 77.9926 57.2306C77.2143 56.339 76.2095 55.8932 74.9782 55.8932C74.0442 55.8932 73.2234 56.1621 72.5158 56.6999C71.8082 57.2235 71.2492 57.9594 70.8388 58.9076C70.4283 59.8558 70.2231 60.9526 70.2231 62.198V63.0259C70.2231 64.3986 70.4637 65.5803 70.9449 66.5709C71.4261 67.5474 72.169 68.3046 73.1738 68.8424C74.1786 69.366 75.4453 69.6278 76.9737 69.6278C77.5681 69.6278 78.2332 69.5783 78.9691 69.4792C79.7192 69.366 80.4763 69.1962 81.2405 68.9697C82.0047 68.7433 82.7194 68.4532 83.3846 68.0994L83.5544 72.7271C83.0166 72.996 82.3868 73.2366 81.6651 73.4489C80.9433 73.6611 80.1367 73.8239 79.2451 73.9371C78.3535 74.0645 77.3912 74.1282 76.3581 74.1282ZM66.9752 63.9599V60.5846L80.5825 60.3511L83.7667 61.5611V63.9599H66.9752Z" fill="#25FAF6"/>
<path d="M96.9901 74.1282C95.4759 74.1282 94.188 73.8947 93.1266 73.4276C92.0652 72.9465 91.2515 72.1893 90.6854 71.1562C90.1193 70.1231 89.8363 68.7787 89.8363 67.1229C89.8363 66.0898 89.8363 65.0496 89.8363 64.0023C89.8363 62.9551 89.8363 61.8866 89.8363 60.7969C89.8363 59.693 89.8363 58.5679 89.8363 57.4216C89.8363 56.2753 89.8363 55.0865 89.8363 53.8553C89.8363 52.3127 89.8363 50.8904 89.8363 49.5885C89.8363 48.2865 89.8363 45.9584 89.8363 44.5998H95.1645C95.1645 45.6754 95.1645 46.6944 95.1645 47.6567C95.1645 48.6049 95.1645 49.5743 95.1645 50.5649C95.1645 51.5556 95.1645 52.6524 95.1645 53.8553V65.5095C95.1645 66.8823 95.4263 67.9225 95.95 68.6301C96.4877 69.3235 97.3369 69.6703 98.4973 69.6703C98.9785 69.6703 99.4951 69.5853 100.047 69.4155C100.613 69.2457 101.144 68.9839 101.639 68.6301L102 73.0668C101.646 73.2932 101.2 73.4842 100.663 73.6399C100.139 73.7956 99.5587 73.9159 98.9219 74.0008C98.2851 74.0857 97.6411 74.1282 96.9901 74.1282ZM86.2063 56.5513V52.4542H101.851V56.5513C100.493 56.5513 99.1271 56.5513 97.7543 56.5513C96.3816 56.5513 95.0513 56.5513 93.7635 56.5513H86.2063Z" fill="#25FAF6"/>
<path fill-rule="evenodd" clip-rule="evenodd" d="M58.5595 18.1665C58.8131 18.0602 59.0993 18.0631 59.3508 18.1745L77.1447 26.0546L93.286 33.2029V38.7307L59.2952 23.6776C59.0438 23.5663 58.7576 23.5634 58.5039 23.6696L24.6679 37.8442C24.2962 37.9999 24.0543 38.3635 24.0543 38.7665V78.186C24.0543 78.5687 24.2727 78.9178 24.6168 79.0852L58.4478 95.5435C58.731 95.6813 59.0625 95.6776 59.3426 95.5336L93.1535 78.1451V83.8287L59.4054 101.185C59.1253 101.329 58.7938 101.333 58.5106 101.195L19.5625 82.2471C19.2184 82.0797 19 81.7305 19 81.3478V35.404C19 35.001 19.2419 34.6373 19.6136 34.4816L58.5595 18.1665Z" fill="url(#paint0_linear_8_42)"/>
<defs>
<linearGradient id="paint0_linear_8_42" x1="20.4808" y1="18" x2="91.8052" y2="101.414" gradientUnits="userSpaceOnUse">
<stop stop-color="#1BCBF2"/>
<stop offset="1" stop-color="#05599F"/>
</linearGradient>
</defs>
</svg>
