<svg width="200" height="57" viewBox="0 0 200 57" fill="none" xmlns="http://www.w3.org/2000/svg">
<g clip-path="url(#clip0_8_488)">
<path d="M73.2559 38.5609C71.4359 38.5609 69.8517 38.2768 68.5035 37.7086C67.1649 37.1404 66.0575 36.3604 65.1811 35.3685C64.3144 34.3766 63.6644 33.2402 63.231 31.9594C62.8073 30.6786 62.5955 29.3256 62.5955 27.9004C62.5955 25.9069 62.9951 24.1013 63.7944 22.4835C64.5937 20.856 65.7734 19.5704 67.3335 18.6266C68.9032 17.6732 70.8388 17.1965 73.1404 17.1965C74.8931 17.1965 76.4291 17.471 77.7484 18.0199C79.0677 18.5688 80.1703 19.3344 81.0563 20.3167C81.9423 21.299 82.6067 22.4353 83.0497 23.7257C83.4927 25.0162 83.7142 26.4029 83.7142 27.8859C83.7142 29.9275 83.3097 31.7524 82.5008 33.3606C81.6919 34.9688 80.5074 36.24 78.9473 37.1741C77.3872 38.0986 75.4901 38.5609 73.2559 38.5609ZM73.1837 35.1951C74.2623 35.1951 75.1964 35.0025 75.9861 34.6173C76.7757 34.2225 77.4306 33.6832 77.9506 32.9995C78.4803 32.3061 78.8703 31.5213 79.1207 30.6449C79.3807 29.7686 79.5107 28.8489 79.5107 27.8859C79.5107 26.8555 79.371 25.8973 79.0918 25.0114C78.8125 24.1254 78.4032 23.3502 77.8639 22.6857C77.3343 22.0116 76.6746 21.4916 75.885 21.1256C75.1049 20.75 74.2045 20.5623 73.1837 20.5623C72.134 20.5623 71.2096 20.7549 70.4103 21.1401C69.611 21.5253 68.9417 22.0597 68.4024 22.7435C67.8727 23.4272 67.4731 24.2121 67.2034 25.098C66.9338 25.9744 66.799 26.9037 66.799 27.8859C66.799 28.8682 66.929 29.7975 67.189 30.6738C67.449 31.5502 67.8438 32.3302 68.3735 33.0139C68.9032 33.6977 69.5676 34.2321 70.3669 34.6173C71.1662 35.0025 72.1052 35.1951 73.1837 35.1951Z" fill="#1A3E62"/>
<path d="M91.0503 38.5609C89.5769 38.5609 88.4742 38.1323 87.7424 37.2752C87.0201 36.4085 86.659 35.1326 86.659 33.4473C86.659 32.8117 86.659 32.258 86.659 31.7861C86.659 31.3142 86.659 30.8327 86.659 30.3416C86.659 29.4171 86.659 28.5937 86.659 27.8715C86.659 27.1492 86.659 26.4655 86.659 25.8203C86.659 25.1751 86.659 24.5058 86.659 23.8124L90.328 23.6968C90.328 24.7273 90.328 25.7481 90.328 26.7592C90.328 27.7607 90.328 28.8104 90.328 29.9082V32.3928C90.328 33.3365 90.4869 34.0492 90.8047 34.5307C91.1321 35.0122 91.7148 35.2529 92.5526 35.2529C93.0244 35.2529 93.4578 35.1566 93.8526 34.964C94.2571 34.7618 94.623 34.497 94.9505 34.1695C95.2779 33.8325 95.5764 33.4569 95.8461 33.0428V29.9082C95.8461 28.8104 95.8461 27.78 95.8461 26.817C95.8461 25.8444 95.8461 24.8428 95.8461 23.8124H99.5151C99.5151 24.8428 99.5151 25.8636 99.5151 26.8748C99.5151 27.8763 99.5151 29.0319 99.5151 30.3416V31.9306C99.5151 33.1247 99.5151 34.2081 99.5151 35.1807C99.5151 36.1533 99.5151 37.1597 99.5151 38.1997H96.395L96.2505 35.8163H95.9183C95.6005 36.2785 95.2105 36.7215 94.7482 37.1452C94.286 37.5593 93.7467 37.9012 93.1304 38.1708C92.5141 38.4309 91.8207 38.5609 91.0503 38.5609Z" fill="#1A3E62"/>
<path d="M109.234 38.5609C108.204 38.5609 107.327 38.402 106.605 38.0842C105.883 37.7567 105.329 37.2415 104.944 36.5385C104.559 35.8355 104.366 34.9207 104.366 33.794C104.366 33.091 104.366 32.3832 104.366 31.6705C104.366 30.9579 104.366 30.2308 104.366 29.4893C104.366 28.7382 104.366 27.9726 104.366 27.1926C104.366 26.4125 104.366 25.6036 104.366 24.7658C104.366 23.7161 104.366 22.7483 104.366 21.8623C104.366 20.9764 104.366 19.3922 104.366 18.4677H107.992C107.992 19.1996 107.992 19.893 107.992 20.5478C107.992 21.193 107.992 21.8527 107.992 22.5268C107.992 23.2009 107.992 23.9472 107.992 24.7658V32.6961C107.992 33.6303 108.17 34.3381 108.526 34.8196C108.892 35.2915 109.47 35.5274 110.26 35.5274C110.587 35.5274 110.938 35.4696 111.314 35.354C111.699 35.2385 112.06 35.0603 112.397 34.8196L112.643 37.8386C112.402 37.9927 112.099 38.1227 111.733 38.2286C111.377 38.3346 110.982 38.4164 110.548 38.4742C110.115 38.532 109.677 38.5609 109.234 38.5609ZM101.896 26.6003V23.8124H112.542V26.6003C111.617 26.6003 110.688 26.6003 109.754 26.6003C108.82 26.6003 107.915 26.6003 107.038 26.6003H101.896Z" fill="#1A3E62"/>
<path d="M119.85 38.5609C119.186 38.5609 118.541 38.5175 117.915 38.4309C117.298 38.3442 116.72 38.2238 116.181 38.0697C115.642 37.9156 115.17 37.7423 114.766 37.5497L115.011 34.314C115.444 34.574 115.916 34.8003 116.427 34.9929C116.947 35.1759 117.486 35.3203 118.045 35.4263C118.603 35.5226 119.157 35.5707 119.706 35.5707C120.129 35.5707 120.515 35.537 120.861 35.4696C121.208 35.3926 121.483 35.2433 121.685 35.0218C121.897 34.8003 122.003 34.4729 122.003 34.0395C122.003 33.741 121.897 33.4954 121.685 33.3028C121.483 33.1102 121.145 32.9321 120.674 32.7684C120.202 32.6047 119.556 32.4169 118.738 32.205C117.919 31.9932 117.212 31.7235 116.615 31.3961C116.027 31.059 115.574 30.6209 115.257 30.0816C114.949 29.5423 114.794 28.8441 114.794 27.987C114.794 26.5425 115.257 25.4254 116.181 24.6358C117.106 23.8461 118.353 23.4513 119.922 23.4513C120.587 23.4513 121.232 23.5042 121.858 23.6102C122.484 23.7065 123.052 23.8365 123.563 24.0002C124.083 24.1543 124.516 24.3132 124.863 24.4769L124.603 27.727C124.16 27.4478 123.678 27.2166 123.158 27.0337C122.638 26.8411 122.137 26.6966 121.656 26.6003C121.174 26.504 120.775 26.4559 120.457 26.4559C120.101 26.4559 119.778 26.504 119.489 26.6003C119.2 26.687 118.969 26.8362 118.796 27.0481C118.632 27.26 118.55 27.5344 118.55 27.8715C118.55 28.1508 118.618 28.3963 118.752 28.6082C118.887 28.8104 119.142 28.9982 119.518 29.1715C119.903 29.3449 120.467 29.5375 121.208 29.7493C122.21 30.0286 123.043 30.3223 123.707 30.6305C124.381 30.9387 124.887 31.3479 125.224 31.8583C125.561 32.3591 125.729 33.0428 125.729 33.9095C125.729 34.834 125.527 35.6429 125.123 36.3363C124.728 37.0297 124.097 37.5738 123.23 37.9686C122.373 38.3634 121.247 38.5609 119.85 38.5609Z" fill="#1A3E62"/>
<path d="M135.448 38.5609C134.177 38.5609 133.069 38.3586 132.125 37.9542C131.182 37.5401 130.397 36.9767 129.771 36.2641C129.145 35.5515 128.678 34.7377 128.37 33.8229C128.061 32.908 127.907 31.9498 127.907 30.9483C127.907 29.5134 128.196 28.2326 128.774 27.1059C129.352 25.9695 130.195 25.0739 131.302 24.4191C132.419 23.7643 133.777 23.4368 135.376 23.4368C136.608 23.4368 137.687 23.6294 138.611 24.0146C139.545 24.3902 140.325 24.9199 140.951 25.6036C141.587 26.2873 142.064 27.0866 142.381 28.0015C142.699 28.9067 142.858 29.889 142.858 30.9483C142.858 32.3928 142.564 33.688 141.977 34.834C141.399 35.98 140.557 36.89 139.449 37.5641C138.342 38.2286 137.008 38.5609 135.448 38.5609ZM135.433 35.5274C136.261 35.5274 136.945 35.3107 137.485 34.8774C138.033 34.4344 138.443 33.8662 138.712 33.1728C138.982 32.4795 139.117 31.738 139.117 30.9483C139.117 30.0238 138.963 29.2293 138.655 28.5648C138.356 27.8907 137.927 27.3755 137.369 27.0192C136.81 26.6533 136.16 26.4703 135.419 26.4703C134.6 26.4703 133.907 26.6725 133.339 27.077C132.78 27.4718 132.357 28.0063 132.068 28.6804C131.788 29.3545 131.649 30.1105 131.649 30.9483C131.649 31.738 131.788 32.4795 132.068 33.1728C132.347 33.8662 132.766 34.4344 133.324 34.8774C133.892 35.3107 134.595 35.5274 135.433 35.5274Z" fill="#1A3E62"/>
<path d="M150.128 38.5609C148.655 38.5609 147.552 38.1323 146.821 37.2752C146.098 36.4085 145.737 35.1326 145.737 33.4473C145.737 32.8117 145.737 32.258 145.737 31.7861C145.737 31.3142 145.737 30.8327 145.737 30.3416C145.737 29.4171 145.737 28.5937 145.737 27.8715C145.737 27.1492 145.737 26.4655 145.737 25.8203C145.737 25.1751 145.737 24.5058 145.737 23.8124L149.406 23.6968C149.406 24.7273 149.406 25.7481 149.406 26.7592C149.406 27.7607 149.406 28.8104 149.406 29.9082V32.3928C149.406 33.3365 149.565 34.0492 149.883 34.5307C150.21 35.0122 150.793 35.2529 151.631 35.2529C152.103 35.2529 152.536 35.1566 152.931 34.964C153.335 34.7618 153.701 34.497 154.029 34.1695C154.356 33.8325 154.655 33.4569 154.924 33.0428V29.9082C154.924 28.8104 154.924 27.78 154.924 26.817C154.924 25.8444 154.924 24.8428 154.924 23.8124H158.593C158.593 24.8428 158.593 25.8636 158.593 26.8748C158.593 27.8763 158.593 29.0319 158.593 30.3416V31.9306C158.593 33.1247 158.593 34.2081 158.593 35.1807C158.593 36.1533 158.593 37.1597 158.593 38.1997H155.473L155.329 35.8163H154.996C154.679 36.2785 154.289 36.7215 153.826 37.1452C153.364 37.5593 152.825 37.9012 152.209 38.1708C151.592 38.4309 150.899 38.5609 150.128 38.5609Z" fill="#1A3E62"/>
<path d="M162.39 38.1997C162.39 37.1597 162.39 36.1533 162.39 35.1807C162.39 34.2081 162.39 33.1247 162.39 31.9306V30.486C162.39 29.3978 162.39 28.2952 162.39 27.1781C162.39 26.061 162.39 24.9391 162.39 23.8124L165.51 23.6246L165.654 26.3692H165.972C166.357 25.5506 166.786 24.9343 167.258 24.5202C167.73 24.0965 168.211 23.8124 168.702 23.668C169.203 23.5139 169.67 23.4368 170.103 23.4368C170.334 23.4368 170.585 23.4561 170.855 23.4946C171.134 23.5331 171.394 23.6005 171.635 23.6968L171.302 27.2937C170.956 27.2455 170.638 27.2118 170.349 27.1926C170.07 27.1637 169.757 27.1492 169.41 27.1492C169.14 27.1492 168.851 27.1829 168.543 27.2503C168.235 27.3178 167.932 27.4526 167.633 27.6548C167.335 27.8474 167.051 28.1315 166.781 28.5071C166.511 28.8826 166.271 29.3738 166.059 29.9805V32.1183C166.059 33.2162 166.059 34.2466 166.059 35.2096C166.059 36.163 166.059 37.1597 166.059 38.1997H162.39Z" fill="#1A3E62"/>
<path d="M180.433 38.5031C178.825 38.5031 177.458 38.1805 176.331 37.5353C175.214 36.8804 174.361 35.9896 173.774 34.8629C173.196 33.7362 172.907 32.4554 172.907 31.0205C172.907 29.576 173.182 28.2856 173.731 27.1492C174.28 26.0032 175.089 25.1028 176.157 24.448C177.236 23.7835 178.57 23.4513 180.159 23.4513C180.727 23.4513 181.29 23.4946 181.849 23.5813C182.407 23.668 182.932 23.7931 183.423 23.9569C183.924 24.1109 184.367 24.2939 184.752 24.5058L184.463 27.7126C183.914 27.4044 183.409 27.1685 182.947 27.0048C182.494 26.8411 182.075 26.7303 181.69 26.6725C181.305 26.6148 180.958 26.5859 180.65 26.5859C179.436 26.5859 178.464 26.9759 177.732 27.7559C177.01 28.536 176.649 29.5904 176.649 30.9194C176.649 31.7957 176.822 32.5758 177.169 33.2595C177.515 33.9336 178.026 34.4681 178.7 34.8629C179.384 35.2481 180.231 35.4407 181.242 35.4407C181.618 35.4407 181.993 35.407 182.369 35.3396C182.744 35.2722 183.115 35.1711 183.481 35.0363C183.847 34.8918 184.199 34.7088 184.536 34.4873L184.752 37.6942C184.425 37.8482 184.044 37.9879 183.611 38.1131C183.187 38.2286 182.711 38.3201 182.181 38.3875C181.651 38.4646 181.069 38.5031 180.433 38.5031Z" fill="#1A3E62"/>
<path d="M194.843 38.5609C193.033 38.5609 191.55 38.2334 190.394 37.5786C189.238 36.9237 188.386 36.0233 187.837 34.8774C187.288 33.7314 187.014 32.4217 187.014 30.9483C187.014 29.4845 187.274 28.1893 187.794 27.0626C188.324 25.9262 189.099 25.0402 190.12 24.4047C191.14 23.7691 192.392 23.4513 193.875 23.4513C195.156 23.4513 196.249 23.6872 197.154 24.1591C198.069 24.6213 198.772 25.3195 199.263 26.2536C199.754 27.1781 200 28.3434 200 29.7493C200 30.1249 199.99 30.462 199.971 30.7605C199.961 31.059 199.933 31.3528 199.884 31.6417L196.692 30.356C196.711 30.2212 196.726 30.0864 196.735 29.9516C196.745 29.8071 196.75 29.6723 196.75 29.5471C196.75 28.4878 196.485 27.6596 195.955 27.0626C195.426 26.4559 194.742 26.1525 193.904 26.1525C193.269 26.1525 192.71 26.3355 192.229 26.7014C191.747 27.0577 191.367 27.5585 191.087 28.2037C190.808 28.8489 190.668 29.5953 190.668 30.4427V31.0061C190.668 31.9402 190.832 32.7443 191.16 33.4184C191.487 34.0829 191.993 34.5981 192.676 34.964C193.36 35.3203 194.222 35.4985 195.262 35.4985C195.666 35.4985 196.119 35.4648 196.62 35.3974C197.13 35.3203 197.645 35.2048 198.165 35.0507C198.685 34.8966 199.172 34.6992 199.624 34.4584L199.74 37.6075C199.374 37.7905 198.945 37.9542 198.454 38.0986C197.963 38.2431 197.414 38.3538 196.808 38.4309C196.201 38.5175 195.546 38.5609 194.843 38.5609ZM188.458 31.6417V29.3449L197.718 29.186L199.884 30.0094V31.6417H188.458Z" fill="#1A3E62"/>
<path d="M21.2206 38.1791C19.439 38.1791 17.8597 37.9143 16.4826 37.3846C15.1151 36.855 13.9595 36.1134 13.0158 35.1601C12.0817 34.2067 11.369 33.08 10.8779 31.7799C10.3964 30.4798 10.1556 29.0594 10.1556 27.5186C10.1556 25.4289 10.5842 23.5799 11.4413 21.9717C12.2983 20.3635 13.5213 19.1067 15.1103 18.2015C16.6993 17.2867 18.5964 16.8292 20.8017 16.8292C21.5239 16.8292 22.2269 16.8774 22.9107 16.9737C23.5944 17.0603 24.2396 17.1855 24.8463 17.3492C25.4626 17.5033 26.0308 17.6767 26.5508 17.8693C27.0805 18.0522 27.5379 18.2448 27.9231 18.4471L27.6053 22.2172C26.806 21.7646 26.026 21.3987 25.2652 21.1194C24.5141 20.8305 23.787 20.6235 23.084 20.4983C22.3906 20.3635 21.731 20.296 21.105 20.296C20.1324 20.296 19.232 20.4549 18.4038 20.7727C17.5852 21.0809 16.8678 21.548 16.2515 22.1739C15.6448 22.7902 15.1729 23.551 14.8359 24.4562C14.4988 25.3518 14.3303 26.3774 14.3303 27.533C14.3303 28.5538 14.4747 29.512 14.7636 30.4076C15.0525 31.2936 15.4907 32.0736 16.0781 32.7477C16.6656 33.4218 17.4167 33.9515 18.3316 34.3367C19.2464 34.7123 20.3202 34.9001 21.5528 34.9001C22.1306 34.9001 22.6892 34.876 23.2285 34.8278C23.7677 34.77 24.2926 34.6786 24.803 34.5534C25.3134 34.4282 25.8141 34.2741 26.3053 34.0911C26.7964 33.8985 27.2875 33.6674 27.7787 33.3978L28.2554 37.0379C27.9279 37.1824 27.509 37.322 26.9986 37.4568C26.4979 37.5917 25.9345 37.7168 25.3086 37.8324C24.6826 37.9383 24.0229 38.0202 23.3296 38.078C22.6362 38.1454 21.9332 38.1791 21.2206 38.1791ZM24.4563 37.1102C24.4563 36.0605 24.4563 35.1408 24.4563 34.3511C24.4563 33.5518 24.4563 32.7525 24.4563 31.9532C24.4563 31.0191 24.4563 30.1958 24.4563 29.4831C24.4563 28.7609 24.4563 28.029 24.4563 27.2875H28.2554C28.2554 28.029 28.2554 28.7609 28.2554 29.4831C28.2554 30.1958 28.2554 31.0191 28.2554 31.9532C28.2554 32.7525 28.2554 33.547 28.2554 34.3367C28.2554 35.1167 28.2554 36.0171 28.2554 37.0379L24.4563 37.1102Z" fill="#00BEBA"/>
<path d="M39.0305 38.1935C37.22 38.1935 35.737 37.8661 34.5814 37.2113C33.4258 36.5564 32.5735 35.656 32.0246 34.51C31.4757 33.3641 31.2013 32.0544 31.2013 30.581C31.2013 29.1172 31.4613 27.8219 31.9813 26.6952C32.5109 25.5589 33.2862 24.6729 34.3069 24.0373C35.3277 23.4017 36.5796 23.084 38.0627 23.084C39.3435 23.084 40.4365 23.3199 41.3417 23.7918C42.2566 24.254 42.9596 24.9522 43.4507 25.8863C43.9418 26.8108 44.1874 27.976 44.1874 29.382C44.1874 29.7576 44.1778 30.0946 44.1585 30.3932C44.1489 30.6917 44.12 30.9854 44.0718 31.2743L40.8795 29.9887C40.8987 29.8539 40.9132 29.7191 40.9228 29.5843C40.9324 29.4398 40.9373 29.305 40.9373 29.1798C40.9373 28.1205 40.6724 27.2923 40.1428 26.6952C39.6131 26.0885 38.9294 25.7852 38.0916 25.7852C37.456 25.7852 36.8974 25.9682 36.4159 26.3341C35.9344 26.6904 35.554 27.1912 35.2748 27.8364C34.9955 28.4816 34.8559 29.2279 34.8559 30.0754V30.6387C34.8559 31.5729 35.0196 32.377 35.347 33.0511C35.6744 33.7156 36.18 34.2308 36.8637 34.5967C37.5475 34.953 38.4094 35.1312 39.4494 35.1312C39.8539 35.1312 40.3065 35.0975 40.8072 35.0301C41.3176 34.953 41.8328 34.8375 42.3529 34.6834C42.8729 34.5293 43.3592 34.3319 43.8118 34.0911L43.9274 37.2402C43.5614 37.4231 43.1329 37.5868 42.6418 37.7313C42.1506 37.8757 41.6017 37.9865 40.995 38.0635C40.3883 38.1502 39.7335 38.1935 39.0305 38.1935ZM32.6458 31.2743V28.9776L41.9051 28.8187L44.0718 29.642V31.2743H32.6458Z" fill="#00BEBA"/>
<path d="M53.07 38.1935C52.0396 38.1935 51.1633 38.0346 50.441 37.7168C49.7187 37.3894 49.165 36.8742 48.7798 36.1712C48.3946 35.4682 48.202 34.5534 48.202 33.4266C48.202 32.7237 48.202 32.0158 48.202 31.3032C48.202 30.5906 48.202 29.8635 48.202 29.122C48.202 28.3709 48.202 27.6053 48.202 26.8252C48.202 26.0452 48.202 25.2363 48.202 24.3985C48.202 23.3488 48.202 22.381 48.202 21.495C48.202 20.609 48.202 19.0249 48.202 18.1004H51.8277C51.8277 18.8323 51.8277 19.5256 51.8277 20.1805C51.8277 20.8257 51.8277 21.4854 51.8277 22.1595C51.8277 22.8336 51.8277 23.5799 51.8277 24.3985V32.3288C51.8277 33.2629 52.0059 33.9707 52.3622 34.4523C52.7281 34.9241 53.3059 35.1601 54.0956 35.1601C54.423 35.1601 54.7745 35.1023 55.1501 34.9867C55.5353 34.8712 55.8964 34.693 56.2335 34.4523L56.4791 37.4713C56.2383 37.6254 55.935 37.7554 55.569 37.8613C55.2127 37.9672 54.8179 38.0491 54.3845 38.1069C53.9512 38.1646 53.513 38.1935 53.07 38.1935ZM45.7319 26.233V23.4451H56.3779V26.233C55.4534 26.233 54.5241 26.233 53.59 26.233C52.6559 26.233 51.7507 26.233 50.8744 26.233H45.7319Z" fill="#00BEBA"/>
<path fill-rule="evenodd" clip-rule="evenodd" d="M26.3616 0.346794C26.89 0.125424 27.4863 0.131443 28.0101 0.363436L39.5658 5.48091L50.5494 10.3451V14.1066L27.9723 4.10818C27.4485 3.87619 26.8522 3.87016 26.3238 4.09153L4.71768 13.1428C3.94329 13.4672 3.43931 14.2247 3.43931 15.0643V40.0772C3.43931 40.8745 3.89432 41.6018 4.61126 41.9506L26.2119 52.459C26.8019 52.746 27.4926 52.7384 28.0761 52.4383L50.4592 40.927V44.7945L28.1188 56.2838C27.5354 56.5839 26.8446 56.5915 26.2546 56.3045L1.17195 44.1021C0.455011 43.7533 0 43.026 0 42.2287V12.7762C0 11.9366 0.503981 11.179 1.27837 10.8546L26.3616 0.346794Z" fill="url(#paint0_linear_8_488)"/>
</g>
<defs>
<linearGradient id="paint0_linear_8_488" x1="1.00764" y1="-1.62396e-05" x2="49.5418" y2="56.7605" gradientUnits="userSpaceOnUse">
<stop stop-color="#07D2FF"/>
<stop offset="1" stop-color="#0061B1"/>
</linearGradient>
<clipPath id="clip0_8_488">
<rect width="200" height="57" fill="white"/>
</clipPath>
</defs>
</svg>
